<?xml version="1.0" encoding="utf-8"?>
<svg width="200" height="200" viewBox="0 0 200 200" fill="none" xmlns="http://www.w3.org/2000/svg">
  <g>
    <rect width="200" height="200" />
    <path id="形状" d="M103.983 125.933L81.75 101.75C81.75 101.75 82.0167 101.45 82.0167 101.45C97.0455 82.9342 108.103 61.5233 114.5 38.5499C114.5 38.5499 140.167 38.5499 140.167 38.5499L140.167 19.25L78.85 19.25L78.85 0L61.35 0L61.35 19.2667L0 19.2667L0 38.55C0 38.55 97.8333 38.55 97.8333 38.55C91.9189 57.3338 82.497 74.8259 70.0667 90.1C61.9955 80.2297 55.1977 69.3835 49.8334 57.8167C49.8334 57.8167 32.3334 57.8167 32.3334 57.8167C38.9 73.8667 47.7 88.6834 58.4167 101.75C58.4167 101.75 13.8667 150.117 13.8667 150.117L26.3 163.783L70.0833 115.617L97.3333 145.583L104 125.933L103.983 125.933Z" fill="#2C2C2C" transform="translate(1.533 0.217)" />
    <path id="形状" d="M63.05 0C67.0678 0 70.325 3.6137 70.325 8.07143C70.325 8.07143 70.325 18.8333 70.325 18.8333C70.325 18.8333 96.0299 18.8333 96.0299 18.8333C96.5635 18.8333 97 19.3176 97 19.9096C97 19.9096 97 25.8286 97 25.8286C97 26.114 96.8978 26.3877 96.7159 26.5896C96.5339 26.7914 96.2872 26.9047 96.0299 26.9047C96.0299 26.9047 89.725 26.9047 89.725 26.9047C89.725 26.9047 89.725 96.8571 89.725 96.8571C89.725 105.773 83.2108 113 75.175 113C75.175 113 21.825 113 21.825 113C13.7892 113 7.27499 105.773 7.27499 96.8571C7.27499 96.8571 7.27499 26.9047 7.27499 26.9047C7.27499 26.9047 0.970078 26.9047 0.970078 26.9047C0.712807 26.9048 0.466064 26.7914 0.284134 26.5896C0.102211 26.3878 0 26.114 0 25.8286C0 25.8286 0 19.9096 0 19.9096C0 19.3176 0.436501 18.8333 0.970078 18.8333C0.970078 18.8333 26.675 18.8333 26.675 18.8333C26.675 18.8333 26.675 8.07143 26.675 8.07143C26.675 3.6137 29.9321 0 33.95 0C33.95 0 63.05 0 63.05 0C63.05 0 63.05 0 63.05 0ZM82.45 26.9048L14.55 26.9048C14.55 26.9048 14.55 96.8572 14.55 96.8572C14.55 101.132 17.553 104.665 21.3986 104.915C21.3986 104.915 21.8253 104.929 21.8253 104.929C21.8253 104.929 75.1754 104.929 75.1754 104.929C79.0276 104.929 82.2122 101.597 82.4382 97.3308C82.4382 97.3308 82.4504 96.8572 82.4504 96.8572L82.4504 26.9048L82.45 26.9048ZM37.83 43.0476C38.3635 43.0476 38.8 43.5319 38.8 44.1239C38.8 44.1239 38.8 85.019 38.8 85.019C38.8 85.3046 38.6978 85.5784 38.5159 85.7802C38.3339 85.982 38.0871 86.0954 37.8298 86.0953C37.8298 86.0953 32.495 86.0953 32.495 86.0953C32.2377 86.0953 31.991 85.9819 31.8091 85.7801C31.6272 85.5782 31.525 85.3045 31.525 85.019C31.525 85.019 31.525 44.1239 31.525 44.1239C31.525 43.5319 31.9615 43.0476 32.495 43.0476C32.495 43.0476 37.83 43.0476 37.83 43.0476C37.83 43.0476 37.83 43.0476 37.83 43.0476ZM64.505 43.0476C65.0384 43.0476 65.4749 43.5319 65.4749 44.1239C65.4749 44.1239 65.4749 85.019 65.4749 85.019C65.4749 85.3046 65.3727 85.5783 65.1908 85.7802C65.0089 85.982 64.7621 86.0953 64.5049 86.0953C64.5049 86.0953 59.1699 86.0953 59.1699 86.0953C58.9126 86.0953 58.6658 85.9819 58.4839 85.7801C58.302 85.5783 58.1998 85.3045 58.1998 85.019C58.1998 85.019 58.1998 44.1239 58.1998 44.1239C58.1998 43.5319 58.6363 43.0476 59.1699 43.0476C59.1699 43.0476 64.505 43.0476 64.505 43.0476C64.505 43.0476 64.505 43.0476 64.505 43.0476ZM63.05 8.07146L33.95 8.07146L33.95 18.8333L63.05 18.8333L63.05 8.07146L63.05 8.07146Z" fill="#333333" transform="translate(100 76)" />
  </g>
</svg>