<?xml version="1.0" encoding="utf-8"?>
<svg width="200" height="200" viewBox="0 0 200 200" fill="none" xmlns="http://www.w3.org/2000/svg">
  <g>
    <rect width="200" height="200" />
    <g id="编组">
      <rect id="矩形" width="200" height="200" />
      <path id="小路" d="M103.983 125.933C103.983 125.933 81.75 101.75 81.75 101.75C81.75 101.75 82.017 101.45 82.017 101.45C97.0458 82.9343 108.103 61.5234 114.5 38.55C114.5 38.55 140.167 38.55 140.167 38.55C140.167 38.55 140.167 19.25 140.167 19.25L78.85 19.25L78.85 0L61.35 0L61.35 19.267L0 19.267C0 19.267 0 38.55 0 38.55C0 38.55 97.833 38.55 97.833 38.55C91.9188 57.3337 82.4971 74.8259 70.067 90.1C61.9956 80.2298 55.1976 69.3837 49.8331 57.817C49.8331 57.817 32.3331 57.817 32.3331 57.817C38.9001 73.867 47.7001 88.683 58.4171 101.75C58.4171 101.75 13.867 150.117 13.867 150.117C13.867 150.117 26.3 163.783 26.3 163.783L70.083 115.617L97.333 145.583L104 125.933L103.983 125.933L103.983 125.933L103.983 125.933Z" fill="#C5C5C5" transform="translate(1.533 0.217)" />
    </g>
    <path id="形状" d="M49.6781 77.3211C50.5212 78.1105 51.665 78.5546 52.858 78.5556C52.858 78.5556 55.1379 78.5556 55.1379 78.5556C56.3284 78.5426 57.4675 78.1004 58.3178 77.3211C58.3178 77.3211 89.0967 48.48 89.0967 48.48C89.6646 47.9532 89.984 47.2361 89.984 46.4881C89.984 45.74 89.6646 45.0229 89.0967 44.4961C89.0967 44.4961 84.8368 40.5122 84.8368 40.5122C84.2839 39.9844 83.527 39.687 82.7369 39.687C81.9468 39.687 81.1899 39.9844 80.637 40.5122C80.637 40.5122 59.9978 59.8706 59.9978 59.8706C59.9978 59.8706 59.9978 2.80556 59.9978 2.80556C59.9977 1.25609 58.6547 0 56.9979 0C56.9979 0 50.9981 0 50.9981 0C49.3413 0 47.9982 1.25609 47.9982 2.80556C47.9982 2.80556 47.9982 59.8706 47.9982 59.8706C47.9982 59.8706 27.359 40.5122 27.359 40.5122C26.7957 39.9811 26.029 39.6823 25.2291 39.6823C24.4292 39.6823 23.6624 39.9811 23.0992 40.5122C23.0992 40.5122 18.8993 44.4961 18.8993 44.4961C18.3314 45.0229 18.012 45.74 18.012 46.4881C18.012 47.2361 18.3314 47.9532 18.8993 48.48C18.8993 48.48 49.6781 77.3211 49.6781 77.3211ZM107.996 89.7778C107.996 89.7778 107.996 70.1389 107.996 70.1389C107.996 68.5894 106.653 67.3333 104.996 67.3333C104.996 67.3333 98.9962 67.3333 98.9962 67.3333C97.3394 67.3333 95.9963 68.5894 95.9963 70.1389C95.9963 70.1389 95.9963 89.7778 95.9963 89.7778L11.9995 89.7778C11.9995 89.7778 11.9995 70.1389 11.9995 70.1389C11.9995 68.5894 10.6564 67.3333 8.99966 67.3333C8.99966 67.3333 2.99989 67.3333 2.99989 67.3333C1.34309 67.3333 0 68.5894 0 70.1389C0 70.1389 0 89.7778 0 89.7778C0.00228882 95.9795 5.37652 101.002 12.0037 101C12.0037 101 96.0005 101 96.0005 101C102.628 101 108 95.9756 108 89.7778C108 89.7778 107.996 89.7778 107.996 89.7778Z" fill="#C5C5C5" transform="translate(92 85)" />
  </g>
</svg>