<?xml version="1.0" encoding="utf-8"?>
<svg width="200" height="200" viewBox="0 0 200 200" fill="none" xmlns="http://www.w3.org/2000/svg">
    <g>
        <rect width="200" height="200" />
        <rect id="矩形" width="200" height="200" />
        <path id="形状"
            d="M103.983 125.933C103.983 125.933 81.75 101.75 81.75 101.75C81.75 101.75 82.0167 101.45 82.0167 101.45C97.0455 82.9342 108.103 61.5233 114.5 38.5499C114.5 38.5499 140.167 38.5499 140.167 38.5499C140.167 38.5499 140.167 19.25 140.167 19.25L78.85 19.25L78.85 0L61.35 0L61.35 19.2667L0 19.2667C0 19.2667 0 38.55 0 38.55C0 38.55 97.8333 38.55 97.8333 38.55C91.9189 57.3338 82.497 74.8259 70.0667 90.1C61.9955 80.2297 55.1977 69.3835 49.8334 57.8167C49.8334 57.8167 32.3334 57.8167 32.3334 57.8167C38.9 73.8667 47.7 88.6834 58.4167 101.75C58.4167 101.75 13.8667 150.117 13.8667 150.117C13.8667 150.117 26.3 163.783 26.3 163.783L70.0833 115.617L97.3333 145.583L104 125.933L103.983 125.933L103.983 125.933Z"
            fill="#c5c5c5" transform="translate(1.533 0.217)" />
        <g transform="translate(98 94)">
            <rect width="98" height="92" />
            <path id="形状"
                d="M49 92C22.05 92 0 71.3 0 46C0 20.7 22.05 0 49 0C75.95 0 98 20.7 98 46C98 71.3 75.95 92 49 92C49 92 49 92 49 92ZM49 7.66667C26.5417 7.66667 8.16667 24.9167 8.16667 46C8.16667 67.0833 26.5417 84.3333 49 84.3333C71.4583 84.3333 89.8333 67.0833 89.8333 46C89.8333 24.9167 71.4583 7.66667 49 7.66667C49 7.66667 49 7.66667 49 7.66667Z"
                fill="#c5c5c5" />
            <path id="小路"
                d="M16.3333 30.6667C15.1083 30.6667 14.2917 30.2833 13.475 29.5167C13.475 29.5167 1.225 18.0167 1.225 18.0167C-0.408333 16.4833 -0.408333 14.1833 1.225 12.65C1.225 12.65 13.475 1.15 13.475 1.15C15.1083 -0.383333 17.5583 -0.383333 19.1917 1.15C20.825 2.68334 20.825 4.98334 19.1917 6.51667C19.1917 6.51667 9.8 15.3333 9.8 15.3333C9.8 15.3333 19.1917 24.15 19.1917 24.15C20.825 25.6833 20.825 27.9833 19.1917 29.5167C18.375 30.2833 17.5583 30.6667 16.3333 30.6667C16.3333 30.6667 16.3333 30.6667 16.3333 30.6667Z"
                fill="#c5c5c5" transform="translate(36.75 30.667)" />
        </g>
    </g>
</svg>