<?xml version="1.0" standalone="no"?>
<!DOCTYPE svg PUBLIC "-//W3C//DTD SVG 1.1//EN" "http://www.w3.org/Graphics/SVG/1.1/DTD/svg11.dtd">
<svg t="1730261607126" class="icon" viewBox="0 0 1024 1024" version="1.1"
    xmlns="http://www.w3.org/2000/svg" p-id="854" xmlns:xlink="http://www.w3.org/1999/xlink"
    width="200" height="200">
    <path
        d="M540.24192 645.888l-113.83296-123.81696 1.36704-1.536a889.74336 889.74336 0 0 0 166.31296-322.048H725.504v-98.816H411.56096V1.11104h-89.6v98.64704H7.84896v98.72896h500.90496A797.68576 797.68576 0 0 1 366.592 462.42304a778.56256 778.56256 0 0 1-103.59808-165.28896h-89.6c33.62304 82.176 78.67904 158.03392 133.55008 224.93696L78.848 769.71008 142.50496 839.68l224.16896-246.60992 139.52 153.42592 34.13504-100.608h-0.08704z"
        fill="#c5c5c5" p-id="855"></path>
    <path
        d="M834.816 389.12c20.57216 0 37.248 18.50368 37.248 41.32352v55.10144h131.6096c2.73408 0 4.9664 2.4832 4.9664 5.51424v30.30528c0 1.4592-0.52224 2.86208-1.45408 3.8912a4.73088 4.73088 0 0 1-3.51232 1.61792h-32.2816v358.15424c0 45.64992-33.35168 82.65216-74.496 82.65216h-273.152c-41.14432 0-74.496-37.00224-74.496-82.65216v-358.15424h-32.2816a4.73088 4.73088 0 0 1-3.51232-1.6128 5.83168 5.83168 0 0 1-1.45408-3.89632v-30.3104c0-3.02592 2.23744-5.50912 4.9664-5.50912h131.6096V430.44352c0-22.81984 16.67584-41.32352 37.248-41.32352h148.992z m99.328 137.7536h-347.648v358.15424c0 21.888 15.37536 39.97696 35.06688 41.25696l2.18112 0.07168h273.152c19.72736 0 36.02944-17.05984 37.18656-38.90176l0.06144-2.42688v-358.15424z m-228.4544 82.65216c2.73408 0 4.9664 2.47808 4.9664 5.50912v209.3824c0 1.46432-0.52224 2.8672-1.45408 3.89632a4.73088 4.73088 0 0 1-3.51232 1.6128h-27.3152a4.73088 4.73088 0 0 1-3.51232-1.6128 5.8368 5.8368 0 0 1-1.45408-3.89632v-209.3824c0-3.03104 2.23744-5.50912 4.9664-5.50912h27.3152z m136.576 0c2.72896 0 4.9664 2.47808 4.9664 5.50912v209.3824c0 1.46432-0.52224 2.8672-1.45408 3.89632a4.73088 4.73088 0 0 1-3.51232 1.6128h-27.3152a4.73088 4.73088 0 0 1-3.51232-1.6128 5.83168 5.83168 0 0 1-1.45408-3.89632v-209.3824c0-3.03104 2.23232-5.50912 4.9664-5.50912h27.3152zM834.816 430.4384h-148.992v55.10144h148.992V430.44352z"
        fill="#c5c5c5" p-id="856"></path>
</svg>