<?xml version="1.0" encoding="utf-8"?>
<svg width="200" height="200" viewBox="0 0 200 200" fill="none" xmlns="http://www.w3.org/2000/svg">
    <g>
        <rect width="200" height="200" />
        <path id="小路"
            d="M103.983 125.933L81.75 101.75C81.75 101.75 82.017 101.45 82.017 101.45C97.0458 82.9343 108.103 61.5234 114.5 38.55C114.5 38.55 140.167 38.55 140.167 38.55L140.167 19.25L78.85 19.25L78.85 0L61.35 0L61.35 19.267L0 19.267L0 38.55C0 38.55 97.833 38.55 97.833 38.55C91.9188 57.3337 82.4971 74.8259 70.067 90.1C61.9956 80.2298 55.1976 69.3837 49.8331 57.817C49.8331 57.817 32.3331 57.817 32.3331 57.817C38.9001 73.867 47.7001 88.683 58.4171 101.75C58.4171 101.75 13.867 150.117 13.867 150.117L26.3 163.783L70.083 115.617L97.333 145.583L104 125.933L103.983 125.933L103.983 125.933Z"
            fill="#2C2C2C" transform="translate(1.533 0.217)" />
        <g transform="translate(81 66)">
            <rect width="119" height="121" />
            <path id="形状"
                d="M99.1667 85.7083L99.1667 75.625L29.75 75.625L29.75 15.125L39.6667 15.125L24.7917 0L9.91667 15.125L19.8333 15.125L19.8333 25.2083L0 25.2083L0 35.2917L19.8333 35.2917C19.8333 35.2917 19.8333 75.625 19.8333 75.625C19.8333 81.196 24.271 85.7083 29.75 85.7083C29.75 85.7083 69.4167 85.7083 69.4167 85.7083L69.4167 95.7917L59.5 95.7917L74.375 110.917L89.25 95.7917L79.3333 95.7917L79.3333 85.7083L99.1667 85.7083L99.1667 85.7083ZM39.6667 35.2917L69.4166 35.2917L69.4166 65.5417L79.3333 65.5417C79.3333 65.5417 79.3333 35.2917 79.3333 35.2917C79.3333 29.7206 74.8956 25.2083 69.4166 25.2083C69.4166 25.2083 39.6667 25.2083 39.6667 25.2083L39.6667 35.2917L39.6667 35.2917Z"
                fill="#2C2C2C" transform="translate(9.917 5.042)" />
        </g>
    </g>
</svg>